<?xml version="1.0" standalone="no"?>
<!DOCTYPE svg PUBLIC "-//W3C//DTD SVG 20010904//EN"
 "http://www.w3.org/TR/2001/REC-SVG-20010904/DTD/svg10.dtd">
<svg version="1.0" xmlns="http://www.w3.org/2000/svg"
 width="54.000000pt" height="54.000000pt" viewBox="0 0 1280.000000 1280.000000"
 preserveAspectRatio="xMidYMid meet">
<metadata>
Created by potrace 1.15, written by Peter Selinger 2001-2017
</metadata>
<g transform="translate(0.000000,1280.000000) scale(0.100000,-0.100000)"
fill="#ffffff" stroke="none">
<path d="M5530 11189 c-989 -8 -1124 -14 -1328 -55 -229 -46 -488 -150 -683
-275 -454 -291 -807 -766 -938 -1261 -71 -268 -84 -425 -71 -908 6 -201 17
-637 25 -970 8 -333 17 -686 20 -785 5 -194 8 -291 30 -1185 50 -1991 46
-1897 86 -2094 11 -54 34 -142 51 -194 32 -101 337 -810 415 -966 247 -493
748 -896 1288 -1037 171 -44 285 -60 485 -65 174 -5 241 -1 1095 75 501 45
1191 106 1535 136 344 30 675 62 735 70 238 34 439 96 661 205 601 294 1095
904 1242 1535 45 193 58 326 67 700 3 121 12 477 20 790 42 1621 57 2207 76
2910 26 966 28 1319 11 1445 -58 418 -220 791 -473 1095 -88 105 -246 262
-339 336 -243 194 -559 341 -856 399 -57 11 -299 40 -537 65 l-432 45 -620 -2
c-341 -1 -1045 -5 -1565 -9z m1869 -2851 c-1 -691 -26 -3848 -30 -3852 -7 -8
-56 -11 -929 -66 -368 -23 -890 -57 -1027 -66 l-93 -6 0 248 c0 137 -7 1046
-15 2019 -8 974 -15 1809 -15 1857 0 62 4 91 14 101 12 11 63 16 228 21 182 6
1373 40 1673 49 55 2 121 4 148 5 l47 2 -1 -312z"/>
</g>
</svg>
